<svg width="200" height="38" xmlns="http://www.w3.org/2000/svg" fill="none">
    <g>
        <title>Layer 1</title>
        <path id="svg_1" fill="#075FE4" d="m16.3574,32.0983l5.1254,0l5.1254,-22.19666l-5.1254,0l-5.1254,22.19666z" />
        <path id="svg_2" fill="#075FE4" d="m11.5113,9.98671l-11.0113,11.01139l0.00205,0.002l-0.00205,0.0021l11.0113,11.0113l3.3397,-3.3397l-7.67366,-7.6737l7.67366,-7.6737l-3.3397,-3.33969z" />
        <path id="svg_3" fill="#075FE4" d="m3.83977,17.6627l-3.33782,3.338l3.33794,3.3378l3.33781,-3.338l-3.33793,-3.3378z" />
        <path id="svg_4" fill="#075FE4" d="m42.4995,20.998l-11.0114,-11.01132l-3.3397,3.33972l7.6737,7.6737l-7.6737,7.6737l3.3397,3.3397l11.0114,-11.0114l-0.0021,-0.002l0.0021,-0.0021z" />
        <path id="svg_5" fill="#075FE4" d="m39.1601,17.662l-3.3378,3.3379l3.3379,3.3378l3.3378,-3.3379l-3.3379,-3.3378z" />
        <path id="svg_6" vector-effect="non-scaling-stroke" d="m50,27.07l0,-2.838l5.676,0l0,2.838a5.886,5.886 0 0 0 0.132,1.285q0.197,0.881 0.688,1.53a3.552,3.552 0 0 0 0.298,0.345q1.086,1.107 3.022,1.139a7.03,7.03 0 0 0 0.117,0.001a5.152,5.152 0 0 0 1.202,-0.132a3.435,3.435 0 0 0 1.744,-0.986q1.053,-1.118 1.053,-3.182l0,-15.91l-5.16,0l0,-5.16l14.276,0l0,5.16l-3.44,0l0,15.91a13.838,13.838 0 0 1 -0.266,2.806q-0.348,1.677 -1.148,2.958a7.45,7.45 0 0 1 -1.123,1.395a8.414,8.414 0 0 1 -3.997,2.147q-1.36,0.326 -2.969,0.326a13.755,13.755 0 0 1 -3.09,-0.328q-2.377,-0.547 -4.062,-2.01a8.748,8.748 0 0 1 -0.222,-0.199a8.302,8.302 0 0 1 -2.462,-4.436a12.471,12.471 0 0 1 -0.269,-2.659zm102.512,2.666l4.988,-1.29a7.364,7.364 0 0 0 0.269,0.998q0.18,0.51 0.424,0.917a3.733,3.733 0 0 0 0.318,0.45q0.709,0.86 1.763,1.226a6.648,6.648 0 0 0 1.614,0.336a7.988,7.988 0 0 0 0.686,0.029a8.574,8.574 0 0 0 0.986,-0.053q1.16,-0.134 1.809,-0.613a2.513,2.513 0 0 0 0.524,-0.509a1.861,1.861 0 0 0 0.379,-1.147a1.8,1.8 0 0 0 -0.156,-0.76q-0.177,-0.386 -0.556,-0.666a2.302,2.302 0 0 0 -0.148,-0.101a4.037,4.037 0 0 0 -0.601,-0.302q-0.82,-0.337 -2.151,-0.579l-1.204,-0.215q-2.236,-0.43 -4.085,-1.182a8.338,8.338 0 0 1 -1.712,-0.931a6.747,6.747 0 0 1 -1.255,-1.155a4.666,4.666 0 0 1 -0.986,-2.083a6.636,6.636 0 0 1 -0.132,-1.357q0,-3.182 2.322,-4.88q2.099,-1.536 5.393,-1.683a15.952,15.952 0 0 1 0.713,-0.016a13.242,13.242 0 0 1 2.605,0.243q1.682,0.337 3.009,1.143a8.196,8.196 0 0 1 0.32,0.205a7.827,7.827 0 0 1 2.052,1.97a7.161,7.161 0 0 1 1.044,2.201l-5.031,1.548q-0.259,-1.23 -0.92,-1.924a2.686,2.686 0 0 0 -0.477,-0.398a4.104,4.104 0 0 0 -1.426,-0.574a5.786,5.786 0 0 0 -1.176,-0.114a7.159,7.159 0 0 0 -0.875,0.05q-0.432,0.053 -0.786,0.164a2.776,2.776 0 0 0 -0.704,0.324a1.919,1.919 0 0 0 -0.506,0.471q-0.311,0.428 -0.311,1.012a1.942,1.942 0 0 0 0.107,0.659q0.183,0.511 0.681,0.824a2.134,2.134 0 0 0 0.072,0.043a4.917,4.917 0 0 0 0.73,0.338q0.382,0.143 0.838,0.256a11.182,11.182 0 0 0 0.754,0.159l1.204,0.215a29.438,29.438 0 0 1 2.566,0.572a23.087,23.087 0 0 1 1.799,0.568q1.956,0.709 3.096,2.021a4.443,4.443 0 0 1 0.936,1.825q0.203,0.779 0.203,1.722a7.39,7.39 0 0 1 -0.327,2.257a5.797,5.797 0 0 1 -2.102,2.925a8.517,8.517 0 0 1 -2.895,1.384q-1.204,0.331 -2.632,0.415a16.941,16.941 0 0 1 -0.988,0.028q-3.519,0 -5.967,-1.286a9.066,9.066 0 0 1 -0.87,-0.52a7.382,7.382 0 0 1 -3.183,-4.926a9.735,9.735 0 0 1 -0.042,-0.234zm-44.548,6.364l-5.418,0l0,-21.328l5.332,0l0,2.795l0.774,0a4.203,4.203 0 0 1 0.625,-0.958q0.32,-0.376 0.752,-0.739a8.782,8.782 0 0 1 0.558,-0.432q1.363,-0.97 4.073,-1.008a15.934,15.934 0 0 1 0.227,-0.002q2.494,0 4.365,1.139q1.87,1.14 2.902,3.139q1.032,2 1.032,4.666l0,12.728l-5.418,0l0,-12.298q0,-1.597 -0.52,-2.664a3.574,3.574 0 0 0 -0.662,-0.948a3.833,3.833 0 0 0 -1.754,-1.003q-0.613,-0.17 -1.346,-0.196a7.646,7.646 0 0 0 -0.276,-0.005a6.011,6.011 0 0 0 -1.648,0.214a4.381,4.381 0 0 0 -2.222,1.441q-1.16,1.396 -1.342,3.724a11.535,11.535 0 0 0 -0.034,0.899l0,10.836zm27.95,-12.9l5.848,0l0,-1.204a3.922,3.922 0 0 0 -0.168,-1.174a3.195,3.195 0 0 0 -0.778,-1.298a2.851,2.851 0 0 0 -1.064,-0.67q-0.801,-0.298 -1.946,-0.298q-2.021,0 -3.01,0.925a4.26,4.26 0 0 0 -1.179,1.942a5.373,5.373 0 0 0 -0.111,0.444l-4.988,-1.677q0.516,-1.634 1.656,-2.988a7.474,7.474 0 0 1 1.727,-1.492a9.795,9.795 0 0 1 1.326,-0.702q1.913,-0.838 4.665,-0.838a13.666,13.666 0 0 1 2.689,0.249q1.628,0.327 2.897,1.082a7.68,7.68 0 0 1 1.079,0.776a6.803,6.803 0 0 1 2.2,3.738a10.498,10.498 0 0 1 0.251,2.368l0,7.955a1.999,1.999 0 0 0 0.057,0.499q0.204,0.791 1.147,0.791l1.72,0l0,4.472l-3.612,0a5.378,5.378 0 0 1 -1.157,-0.118a3.754,3.754 0 0 1 -1.466,-0.656a2.591,2.591 0 0 1 -0.732,-0.823q-0.281,-0.512 -0.299,-1.155a3.161,3.161 0 0 1 -0.001,-0.086l0,-0.043l-0.817,0a2.738,2.738 0 0 1 -0.14,0.335q-0.171,0.35 -0.484,0.806a11.974,11.974 0 0 1 -0.15,0.213a3.803,3.803 0 0 1 -0.658,0.697q-0.333,0.278 -0.761,0.53a7.778,7.778 0 0 1 -0.473,0.257q-1.29,0.645 -3.526,0.645q-2.279,0 -4.085,-0.795a6.869,6.869 0 0 1 -2.087,-1.399a6.444,6.444 0 0 1 -0.772,-0.924a5.865,5.865 0 0 1 -0.94,-2.352a7.923,7.923 0 0 1 -0.114,-1.367q0,-2.193 1.054,-3.676a6.212,6.212 0 0 1 2.251,-1.929a7.752,7.752 0 0 1 0.673,-0.308a10.223,10.223 0 0 1 2.41,-0.628a13.508,13.508 0 0 1 1.868,-0.124zm-60.716,2.58l0,-0.688a13.546,13.546 0 0 1 0.28,-2.821a10.011,10.011 0 0 1 1.182,-3.07q1.462,-2.451 3.999,-3.741a11.929,11.929 0 0 1 4.263,-1.219a14.665,14.665 0 0 1 1.456,-0.071a13.5,13.5 0 0 1 3.376,0.408a11.45,11.45 0 0 1 2.343,0.882q2.537,1.29 3.999,3.741q1.462,2.451 1.462,5.891l0,0.688a13.546,13.546 0 0 1 -0.28,2.821a10.011,10.011 0 0 1 -1.182,3.07q-1.462,2.451 -3.999,3.741a11.929,11.929 0 0 1 -4.263,1.219a14.665,14.665 0 0 1 -1.456,0.071a13.5,13.5 0 0 1 -3.375,-0.408a11.45,11.45 0 0 1 -2.344,-0.882q-2.537,-1.29 -3.999,-3.741q-1.462,-2.451 -1.462,-5.891zm16.942,-0.129l0,-0.43a8.992,8.992 0 0 0 -0.173,-1.825q-0.228,-1.098 -0.755,-1.937a4.878,4.878 0 0 0 -0.684,-0.86a5.44,5.44 0 0 0 -3.417,-1.577a7.382,7.382 0 0 0 -0.733,-0.036a6.322,6.322 0 0 0 -2.067,0.325a5.406,5.406 0 0 0 -2.061,1.287a5.21,5.21 0 0 0 -1.343,2.332q-0.291,1.021 -0.291,2.291l0,0.43a8.878,8.878 0 0 0 0.176,1.825q0.237,1.124 0.79,1.977a4.886,4.886 0 0 0 0.668,0.82a5.536,5.536 0 0 0 3.668,1.599a7.358,7.358 0 0 0 0.46,0.014a6.322,6.322 0 0 0 2.067,-0.325a5.406,5.406 0 0 0 2.061,-1.287a5.21,5.21 0 0 0 1.343,-2.332q0.291,-1.021 0.291,-2.291zm49.622,2.021l0,-0.43l-5.461,0a5.695,5.695 0 0 0 -0.918,0.069q-0.869,0.143 -1.447,0.576a2.075,2.075 0 0 0 -0.846,1.52a2.888,2.888 0 0 0 -0.014,0.286q0,1.16 0.902,1.891a3.16,3.16 0 0 0 0.001,0.001q0.697,0.564 1.88,0.693a6.873,6.873 0 0 0 0.743,0.038a6.702,6.702 0 0 0 1.653,-0.194a4.902,4.902 0 0 0 2.067,-1.074a4.176,4.176 0 0 0 1.423,-2.925a5.784,5.784 0 0 0 0.017,-0.451z" fill="#ffffff" />
    </g>
</svg>