<svg height="110" width="500" viewBox="0 0 522.6 72.802" xmlns="http://www.w3.org/2000/svg"><g id="svgGroup" stroke-linecap="round" fill-rule="evenodd" font-size="9pt" stroke="#000000" stroke-width="0" fill="#ffffff" style="stroke:#000000;stroke-width:0;fill:#ffffff"><path d="M 481.8 71.401 L 468.8 71.401 L 468.8 1.401 L 493.9 1.401 L 507.8 62.401 L 509.6 62.401 L 509.6 1.401 L 522.6 1.401 L 522.6 71.401 L 497.5 71.401 L 483.6 10.401 L 481.8 10.401 L 481.8 71.401 Z M 0 48.601 L 0 45.801 L 13 45.801 L 13 48.601 A 16.154 16.154 0 0 0 13.4 52.314 Q 14.044 55.039 15.722 56.929 A 9.847 9.847 0 0 0 16.9 58.051 Q 20.336 60.826 25.943 61.156 A 26.46 26.46 0 0 0 27.5 61.201 A 27.572 27.572 0 0 0 31.052 60.988 Q 35.206 60.447 37.608 58.535 A 8.688 8.688 0 0 0 37.65 58.501 A 9.141 9.141 0 0 0 39.998 55.746 A 8.556 8.556 0 0 0 41 51.601 A 8.297 8.297 0 0 0 40.75 49.508 A 6.044 6.044 0 0 0 39.35 46.901 A 9.204 9.204 0 0 0 37.547 45.403 Q 36.671 44.837 35.583 44.363 A 18.257 18.257 0 0 0 34.55 43.951 Q 32.138 43.071 28.935 42.278 A 87.568 87.568 0 0 0 26.9 41.801 L 24.6 41.301 Q 17.4 39.701 12.25 37.251 A 22.539 22.539 0 0 1 7.949 34.614 A 17.432 17.432 0 0 1 4.35 30.801 A 14.736 14.736 0 0 1 2.245 26.038 Q 1.741 24.056 1.631 21.73 A 28.073 28.073 0 0 1 1.6 20.401 A 22.426 22.426 0 0 1 2.226 14.981 A 17.365 17.365 0 0 1 4.65 9.451 A 18.927 18.927 0 0 1 11.257 3.444 A 23.564 23.564 0 0 1 13.25 2.451 A 27.806 27.806 0 0 1 19.904 0.504 Q 22.878 0.005 26.247 0.001 A 45.711 45.711 0 0 1 26.3 0.001 Q 33.8 0.001 39.65 2.551 A 21.141 21.141 0 0 1 46.768 7.508 A 20.415 20.415 0 0 1 48.85 10.151 A 19.368 19.368 0 0 1 51.582 16.741 Q 52.162 19.361 52.198 22.395 A 34.023 34.023 0 0 1 52.2 22.801 L 52.2 25.801 L 39.2 25.801 L 39.2 22.801 A 16.923 16.923 0 0 0 39.017 20.234 Q 38.804 18.848 38.343 17.709 A 8.496 8.496 0 0 0 37.65 16.351 A 8.927 8.927 0 0 0 33.656 12.944 A 11.081 11.081 0 0 0 33.2 12.751 Q 30.3 11.601 26.3 11.601 A 25.534 25.534 0 0 0 23.174 11.779 Q 19.499 12.234 17.45 13.851 A 7.259 7.259 0 0 0 14.634 19.168 A 9.978 9.978 0 0 0 14.6 20.001 A 8.311 8.311 0 0 0 14.868 22.158 A 6.506 6.506 0 0 0 15.95 24.401 A 8.148 8.148 0 0 0 17.634 26.048 Q 18.442 26.647 19.465 27.151 A 15.131 15.131 0 0 0 20 27.401 A 24.926 24.926 0 0 0 22.236 28.259 Q 24.275 28.939 26.9 29.501 L 29.2 30.001 Q 36.14 31.482 41.41 33.733 A 46.906 46.906 0 0 1 42.25 34.101 A 25.349 25.349 0 0 1 46.915 36.796 A 19.395 19.395 0 0 1 50.9 40.701 Q 54 44.801 54 51.201 A 21.324 21.324 0 0 1 53.028 57.738 A 18.628 18.628 0 0 1 50.75 62.451 A 20.822 20.822 0 0 1 44.066 68.722 A 26.199 26.199 0 0 1 41.55 70.051 Q 35.642 72.782 27.615 72.801 A 47.531 47.531 0 0 1 27.5 72.801 A 38.513 38.513 0 0 1 20.099 72.121 A 29.653 29.653 0 0 1 13.2 69.901 A 23.53 23.53 0 0 1 6.088 64.876 A 22.1 22.1 0 0 1 3.5 61.601 A 21.469 21.469 0 0 1 0.386 53.405 A 28.785 28.785 0 0 1 0 48.601 Z M 304.6 71.401 L 259 71.401 L 259 1.401 L 304 1.401 L 304 13.401 L 272.2 13.401 L 272.2 30.101 L 301.2 30.101 L 301.2 42.101 L 272.2 42.101 L 272.2 59.401 L 304.6 59.401 L 304.6 71.401 Z M 62.2 44.801 L 62.2 28.001 A 38.471 38.471 0 0 1 63.018 19.815 Q 64.183 14.466 67.007 10.481 A 22.17 22.17 0 0 1 69.8 7.251 A 25.422 25.422 0 0 1 81.927 0.897 A 37.839 37.839 0 0 1 90.4 0.001 A 37.833 37.833 0 0 1 98.407 0.797 Q 103.499 1.899 107.322 4.531 A 21.561 21.561 0 0 1 110.35 7.051 A 23.314 23.314 0 0 1 116.567 18.565 A 34.803 34.803 0 0 1 117.4 26.401 L 117.4 27.001 L 104.4 27.001 L 104.4 26.001 A 18.261 18.261 0 0 0 103.831 21.327 A 13.689 13.689 0 0 0 100.95 15.801 A 10.851 10.851 0 0 0 95.785 12.526 Q 93.423 11.801 90.4 11.801 A 18.36 18.36 0 0 0 85.756 12.356 A 12.95 12.95 0 0 0 79.4 16.101 Q 75.4 20.401 75.4 27.801 L 75.4 45.001 Q 75.4 52.301 79.4 56.651 Q 83.4 61.001 90.4 61.001 A 19.718 19.718 0 0 0 94.435 60.615 Q 96.822 60.116 98.627 58.969 A 10.267 10.267 0 0 0 100.95 56.951 A 14.3 14.3 0 0 0 104.211 49.548 A 19.277 19.277 0 0 0 104.4 46.801 L 104.4 45.001 L 117.4 45.001 L 117.4 46.401 A 34.572 34.572 0 0 1 116.509 54.482 A 23.249 23.249 0 0 1 110.35 65.751 A 22.965 22.965 0 0 1 99.916 71.638 Q 96.309 72.619 92.014 72.773 A 45.222 45.222 0 0 1 90.4 72.801 A 37.675 37.675 0 0 1 81.754 71.865 A 25.373 25.373 0 0 1 69.8 65.551 Q 62.2 58.301 62.2 44.801 Z M 209 71.401 L 195.8 71.401 L 195.8 1.401 L 226.2 1.401 A 31.999 31.999 0 0 1 231.832 1.873 A 23.464 23.464 0 0 1 237.7 3.701 A 18.821 18.821 0 0 1 242.743 7.102 A 16.886 16.886 0 0 1 245.3 10.201 A 16.924 16.924 0 0 1 247.81 17.179 A 21.788 21.788 0 0 1 248 20.101 L 248 21.301 Q 248 27.601 245 31.501 Q 242 35.401 237.6 37.201 L 237.6 39.001 A 10.611 10.611 0 0 1 240.295 39.465 A 7.555 7.555 0 0 1 243.8 41.751 A 8.756 8.756 0 0 1 245.678 45.527 Q 245.99 46.851 246 48.401 A 15.926 15.926 0 0 1 246 48.501 L 246 71.401 L 232.8 71.401 L 232.8 50.401 A 7.544 7.544 0 0 0 232.624 48.728 A 5.229 5.229 0 0 0 231.55 46.501 Q 230.3 45.001 227.4 45.001 L 209 45.001 L 209 71.401 Z M 327.6 71.401 L 314.4 71.401 L 314.4 1.401 L 343.2 1.401 Q 349.8 1.401 354.85 4.051 Q 359.9 6.701 362.75 11.501 A 20.065 20.065 0 0 1 365.26 18.553 A 26.722 26.722 0 0 1 365.6 22.901 L 365.6 24.301 Q 365.6 30.801 362.65 35.651 Q 359.7 40.501 354.65 43.151 Q 349.6 45.801 343.2 45.801 L 327.6 45.801 L 327.6 71.401 Z M 126.6 44.801 L 126.6 28.001 Q 126.6 14.501 134.4 7.251 A 26.251 26.251 0 0 1 146.61 0.937 A 38.961 38.961 0 0 1 155.4 0.001 A 38.961 38.961 0 0 1 164.19 0.937 A 26.251 26.251 0 0 1 176.4 7.251 Q 183.976 14.293 184.194 27.232 A 45.811 45.811 0 0 1 184.2 28.001 L 184.2 44.801 Q 184.2 58.301 176.4 65.551 A 26.251 26.251 0 0 1 164.19 71.865 A 38.961 38.961 0 0 1 155.4 72.801 A 38.961 38.961 0 0 1 146.61 71.865 A 26.251 26.251 0 0 1 134.4 65.551 Q 126.824 58.509 126.607 45.571 A 45.811 45.811 0 0 1 126.6 44.801 Z M 399.6 44.801 L 399.6 28.001 Q 399.6 14.501 407.4 7.251 A 26.251 26.251 0 0 1 419.61 0.937 A 38.961 38.961 0 0 1 428.4 0.001 A 38.961 38.961 0 0 1 437.19 0.937 A 26.251 26.251 0 0 1 449.4 7.251 Q 456.976 14.293 457.194 27.232 A 45.811 45.811 0 0 1 457.2 28.001 L 457.2 44.801 Q 457.2 58.301 449.4 65.551 A 26.251 26.251 0 0 1 437.19 71.865 A 38.961 38.961 0 0 1 428.4 72.801 A 38.961 38.961 0 0 1 419.61 71.865 A 26.251 26.251 0 0 1 407.4 65.551 Q 399.824 58.509 399.607 45.571 A 45.811 45.811 0 0 1 399.6 44.801 Z M 388 71.401 L 374.8 71.401 L 374.8 1.401 L 388 1.401 L 388 71.401 Z M 171 45.201 L 171 27.601 A 20.478 20.478 0 0 0 170.436 22.657 A 14.31 14.31 0 0 0 166.9 16.101 A 13.407 13.407 0 0 0 160.122 12.315 A 20.423 20.423 0 0 0 155.4 11.801 A 19.936 19.936 0 0 0 150.608 12.344 A 13.561 13.561 0 0 0 143.95 16.101 Q 139.8 20.401 139.8 27.601 L 139.8 45.201 A 20.222 20.222 0 0 0 140.378 50.169 A 14.254 14.254 0 0 0 143.95 56.701 A 13.669 13.669 0 0 0 151.047 60.56 A 20.342 20.342 0 0 0 155.4 61.001 A 20.447 20.447 0 0 0 160.098 60.493 Q 163.985 59.576 166.602 57.004 A 13.089 13.089 0 0 0 166.9 56.701 A 14.468 14.468 0 0 0 170.58 49.516 A 21.037 21.037 0 0 0 171 45.201 Z M 444 45.201 L 444 27.601 A 20.478 20.478 0 0 0 443.436 22.657 A 14.31 14.31 0 0 0 439.9 16.101 A 13.407 13.407 0 0 0 433.122 12.315 A 20.423 20.423 0 0 0 428.4 11.801 A 19.936 19.936 0 0 0 423.608 12.344 A 13.561 13.561 0 0 0 416.95 16.101 Q 412.8 20.401 412.8 27.601 L 412.8 45.201 A 20.222 20.222 0 0 0 413.378 50.169 A 14.254 14.254 0 0 0 416.95 56.701 A 13.669 13.669 0 0 0 424.047 60.56 A 20.342 20.342 0 0 0 428.4 61.001 A 20.447 20.447 0 0 0 433.098 60.493 Q 436.985 59.576 439.602 57.004 A 13.089 13.089 0 0 0 439.9 56.701 A 14.468 14.468 0 0 0 443.58 49.516 A 21.037 21.037 0 0 0 444 45.201 Z M 209 13.401 L 209 33.001 L 224.8 33.001 Q 228.729 33.001 231.225 31.219 A 8.216 8.216 0 0 0 232.15 30.451 Q 234.8 27.901 234.8 23.701 L 234.8 22.701 A 10.997 10.997 0 0 0 234.403 19.672 A 8.322 8.322 0 0 0 232.2 15.951 A 8.429 8.429 0 0 0 228.579 13.889 Q 227.267 13.508 225.699 13.424 A 16.926 16.926 0 0 0 224.8 13.401 L 209 13.401 Z M 327.6 13.401 L 327.6 33.801 L 341.9 33.801 A 13.825 13.825 0 0 0 345.235 33.42 A 9.819 9.819 0 0 0 349.5 31.201 A 8.556 8.556 0 0 0 352.271 25.915 A 12.286 12.286 0 0 0 352.4 24.101 L 352.4 23.101 Q 352.4 18.601 349.5 16.001 A 9.933 9.933 0 0 0 344.791 13.681 A 14.209 14.209 0 0 0 341.9 13.401 L 327.6 13.401 Z" vector-effect="non-scaling-stroke"/></g></svg>