<?xml version="1.0" encoding="UTF-8"?>
<svg id="Layer_1" data-name="Layer 1" xmlns="http://www.w3.org/2000/svg" viewBox="0 0 841.89 595.28" height="40px">
  <defs>
    <style>
      .cls-1 {
        fill: #ffffff;
      }
    </style>
  </defs>
  <path class="cls-1" d="m720.85,271.4c-.76,26.3-3.77,56.68-13.4,77.8-5.09,11.17-12.23,16.4-24.64,17.19-13.79,0-39.45,0-39.45,0,0,0,.13-.65,0,0-6.82,33.31-37.52,65.72-60.93,82.07-17.12,11.96-69.88,45.16-93.17,60.23-7.2,4.66-18.84.43-18.84-10.29v-40.3h-114.9c-68.29,0-128.09-36.86-160.65-91.71-.68-1.15,0,0,0,0,0,0-25.91,0-35.86,0-15.43-1.22-20.23-6.55-24.64-17.19-9.11-22-13.44-54.4-13.44-77.8,0-23.13,3.69-55.41,13.2-77.14,4.43-10.12,8.37-16.35,24.88-17.86,10.03,0,35.97-.17,35.97-.17,0,0-.74,1.24,0,0,32.58-54.75,92.33-91.55,160.53-91.55h127.18c68.27,0,128.06,36.87,160.62,91.71.27.46,0,0,0,0,0,0,23.23.37,39.47,0,11.99.71,19.77,5.4,24.88,17.86,9.77,23.83,13.96,49.52,13.16,77.14Zm-127.93,88.49v-185.07c0-5.51-4.51-10.02-10.02-10.02H253.95c-5.51,0-10.02,4.51-10.02,10.02v185.07c0,5.51,4.51,10.02,10.02,10.02h328.95c5.51,0,10.02-4.51,10.02-10.02Zm-257.51-137.1c-24.62,0-44.57,19.95-44.57,44.57s19.95,44.57,44.57,44.57,44.57-19.95,44.57-44.57-19.95-44.57-44.57-44.57Zm166.03,0c-24.62,0-44.57,19.95-44.57,44.57s19.95,44.57,44.57,44.57,44.57-19.95,44.57-44.57-19.95-44.57-44.57-44.57Z"/>
</svg>