<svg width="76" height="76" xmlns="http://www.w3.org/2000/svg" fill="none">
 <g>
  <title>Layer 1</title>
  <circle id="svg_1" fill="#075FE4" r="38" cy="38" cx="38"/>
  <path id="svg_2" d="m55.18275,38.20751l2.82031,-4.77734c0.11329,-0.23828 0.12891,-0.51172 0.04297,-0.75781l-5.58593,-16c-0.17188,-0.48829 -0.6836,-0.76563 -1.17969,-0.64454l-16.41797,4c-0.3125,0.07813 -0.57031,0.30079 -0.69141,0.60157l-1.74609,4.37109l-5.32422,0c-0.27734,0 -0.54687,0.11719 -0.73437,0.32031l-12,13c-0.3711,0.40235 -0.35157,1.02735 0.04296,1.40235l12.58594,12c0.1836,0.17968 0.4336,0.27734 0.6875,0.27734l5.73828,0l1.75,4.37109c0.12891,0.32422 0.41797,0.55469 0.75782,0.61329l17.46093,3c0.05469,0.01171 0.11328,0.01562 0.16797,0.01562c0.46485,0 0.875,-0.32031 0.97656,-0.78516l3.54297,-16.23046c0.05469,-0.25 0.01172,-0.51172 -0.125,-0.73438l-2.76953,-4.04297zm-22.75781,-13.20703l14.09375,-2.58203l-7.41797,14.58203l-16.83203,0l10.15625,-12zm1,27l-11.15625,-11l16.83203,0l8.75,13.16797l-14.42578,-2.16797zm18.0625,-0.10156l-8.38672,-12.89844l7.33203,-14.58203l4.75,13.79297l-3.69531,13.6875z" fill="#ffffff"/>
 </g>
</svg>